<svg width="19" height="19" viewBox="0 0 19 19" fill="none" xmlns="http://www.w3.org/2000/svg">
<path d="M15.9999 6.83337H8.49992C7.57944 6.83337 6.83325 7.57957 6.83325 8.50004V16C6.83325 16.9205 7.57944 17.6667 8.49992 17.6667H15.9999C16.9204 17.6667 17.6666 16.9205 17.6666 16V8.50004C17.6666 7.57957 16.9204 6.83337 15.9999 6.83337Z" stroke="#FEFEFE" stroke-width="1.5" stroke-linecap="round" stroke-linejoin="round"/>
<path d="M3.5 11.8333H2.66667C2.22464 11.8333 1.80072 11.6577 1.48816 11.3452C1.17559 11.0326 1 10.6087 1 10.1667V2.66667C1 2.22464 1.17559 1.80072 1.48816 1.48816C1.80072 1.17559 2.22464 1 2.66667 1H10.1667C10.6087 1 11.0326 1.17559 11.3452 1.48816C11.6577 1.80072 11.8333 2.22464 11.8333 2.66667V3.5" stroke="#FEFEFE" stroke-width="1.5" stroke-linecap="round" stroke-linejoin="round"/>
</svg>
